<svg class="main-svg" xmlns="http://www.w3.org/2000/svg" xmlns:xlink="http://www.w3.org/1999/xlink" width="700" height="500" style="" viewBox="0 0 700 500"><rect x="0" y="0" width="700" height="500" style="fill: rgb(255, 255, 255); fill-opacity: 1;"/><defs id="defs-90c9c9"><g class="clips"><clipPath id="clip90c9c9xyplot" class="plotclip"><rect width="431" height="375"/></clipPath><clipPath class="axesclip" id="clip90c9c9x"><rect x="75" y="0" width="431" height="500"/></clipPath><clipPath class="axesclip" id="clip90c9c9y"><rect x="0" y="60" width="700" height="375"/></clipPath><clipPath class="axesclip" id="clip90c9c9xy"><rect x="75" y="60" width="431" height="375"/></clipPath></g><g class="gradients"/><g class="patterns"/></defs><g class="bglayer"/><g class="layer-below"><g class="imagelayer"/><g class="shapelayer"/></g><g class="cartesianlayer"><g class="subplot xy"><g class="layer-subplot"><g class="shapelayer"/><g class="imagelayer"/></g><g class="minor-gridlayer"><g class="x"/><g class="y"/></g><g class="gridlayer"><g class="x"><path class="xgrid crisp" transform="translate(102.39,0)" d="M0,60v375" style="stroke: rgb(211, 211, 211); stroke-opacity: 1; stroke-width: 0.5px;"/><path class="xgrid crisp" transform="translate(205.89,0)" d="M0,60v375" style="stroke: rgb(211, 211, 211); stroke-opacity: 1; stroke-width: 0.5px;"/><path class="xgrid crisp" transform="translate(412.88,0)" d="M0,60v375" style="stroke: rgb(211, 211, 211); stroke-opacity: 1; stroke-width: 0.5px;"/></g><g class="y"><path class="ygrid crisp" transform="translate(0,410.45)" d="M75,0h431" style="stroke: rgb(211, 211, 211); stroke-opacity: 1; stroke-width: 0.5px;"/><path class="ygrid crisp" transform="translate(0,358.7)" d="M75,0h431" style="stroke: rgb(211, 211, 211); stroke-opacity: 1; stroke-width: 0.5px;"/><path class="ygrid crisp" transform="translate(0,306.95)" d="M75,0h431" style="stroke: rgb(211, 211, 211); stroke-opacity: 1; stroke-width: 0.5px;"/><path class="ygrid crisp" transform="translate(0,203.45)" d="M75,0h431" style="stroke: rgb(211, 211, 211); stroke-opacity: 1; stroke-width: 0.5px;"/><path class="ygrid crisp" transform="translate(0,151.7)" d="M75,0h431" style="stroke: rgb(211, 211, 211); stroke-opacity: 1; stroke-width: 0.5px;"/><path class="ygrid crisp" transform="translate(0,99.96000000000001)" d="M75,0h431" style="stroke: rgb(211, 211, 211); stroke-opacity: 1; stroke-width: 0.5px;"/></g></g><g class="zerolinelayer"><path class="xzl zl crisp" transform="translate(309.38,0)" d="M0,60v375" style="stroke: rgb(255, 255, 255); stroke-opacity: 1; stroke-width: 2px;"/><path class="yzl zl crisp" transform="translate(0,255.2)" d="M75,0h431" style="stroke: rgb(255, 255, 255); stroke-opacity: 1; stroke-width: 2px;"/></g><g class="layer-between"><g class="shapelayer"/><g class="imagelayer"/></g><path class="xlines-below"/><path class="ylines-below"/><g class="overlines-below"/><g class="xaxislayer-below"/><g class="yaxislayer-below"/><g class="overaxes-below"/><g class="overplot"><g class="xy" transform="translate(75,60)" clip-path="url(#clip90c9c9xyplot)"><g class="scatterlayer mlayer"><g class="trace scatter trace008f10" style="stroke-miterlimit: 2; opacity: 0.3;"><g class="fills"/><g class="errorbars"/><g class="lines"><path class="js-line" d="M27.19,96.37L43.1,120.44L43.9,121.73L59.73,145.85L60.58,147.11L72.93,166.24L73.72,167.54L80.98,180.87L81.61,182.25L84.86,190.76L85.28,192.22L87.51,202.6L87.73,204.1L88.84,217.72L88.91,219.23L91.03,273.83L91.26,275.33L93.22,284.22L93.64,285.68L96.36,292.76L97.03,294.13L101.61,301.99L102.49,303.23L110.1,312.68L111.11,313.82L122.72,325.83L123.81,326.89L138.41,340.17L139.58,341.14L148.12,347.45L149.4,348.26L156.05,351.91L157.45,352.49L166.22,354.88L167.72,355.03L176.79,354.47L178.26,354.11L186.83,351.06L188.2,350.41L199.95,343.44L201.2,342.58L214.56,332.57L215.75,331.62L243.55,308.05L244.68,307.04L268.89,284.02L269.98,282.96L314.71,239.66L315.84,238.64L334.3,222.84L335.47,221.88L362.12,199.3L363.24,198.28L378.09,183.08L379.08,181.93L387.5,171.17L388.37,169.92L393.81,160.8L394.52,159.46L398.68,149.69L399.21,148.26L402.57,135.03L402.84,133.53L404.43,119.96L404.55,118.45L412.02,30.71L412.22,29.2L414.16,18.75" style="vector-effect: none; fill: none; stroke: rgb(255, 99, 71); stroke-opacity: 1; stroke-width: 1px; opacity: 1;"/></g><g class="points"/><g class="text"/></g><g class="trace scatter trace1bec93" style="stroke-miterlimit: 2; opacity: 0.3;"><g class="fills"/><g class="errorbars"/><g class="lines"><path class="js-line" d="M32.37,91.2L48.33,115.38L49.13,116.68L78.2,163.25L78.88,164.61L83.7,175.81L84.2,177.25L86.58,186.08L86.87,187.58L88.3,198.16L88.44,199.67L89.21,222.54L89.22,224.07L90.37,268.28L90.52,269.8L92.54,281.82L92.94,283.29L96.62,293.3L97.29,294.67L101.09,301.27L101.98,302.51L109.56,312.07L110.57,313.21L122.19,325.31L123.28,326.38L139.09,340.73L140.26,341.7L150.2,348.77L151.48,349.59L161.26,353.84L162.73,354.21L170.28,355.09L171.81,355.12L180.77,353.38L182.23,352.96L191.9,348.45L193.23,347.71L207.13,338.32L208.35,337.42L232.01,318.15L233.17,317.16L253.58,298.8L254.7,297.76L322.98,232.33L324.14,231.34L368.12,193.61L369.19,192.52L381.56,179.04L382.51,177.84L391.26,165.36L392.05,164.06L397.41,153.11L397.94,151.68L401.53,140.02L401.88,138.54L403.82,126.5L403.97,124.98L405.79,100.64L405.92,99.12L412.01,30.76L412.21,29.25L414.16,18.75" style="vector-effect: none; fill: none; stroke: rgb(255, 99, 71); stroke-opacity: 1; stroke-width: 1px; opacity: 1;"/></g><g class="points"/><g class="text"/></g><g class="trace scatter trace7231f0" style="stroke-miterlimit: 2; opacity: 0.3;"><g class="fills"/><g class="errorbars"/><g class="lines"><path class="js-line" d="M16.84,101.55L31.94,124.27L32.73,125.56L47.71,148.36L48.58,149.6L79.31,194.68L80,196.03L84.32,205.71L84.77,207.15L87.28,217.45L87.52,218.95L88.63,229.49L88.74,231.01L91.17,274.87L91.4,276.37L93.93,286.67L94.45,288.09L98.91,297.69L99.7,298.99L104.87,306.46L105.83,307.64L115.91,318.95L116.96,320.04L134.47,336.81L135.61,337.82L147.58,347.1L148.85,347.91L156.82,352.27L158.25,352.78L165.55,354.75L167.04,355.01L176.09,354.56L177.58,354.31L187.56,350.75L188.9,350.04L200.58,343.01L201.83,342.15L213.95,333.06L215.13,332.11L240.65,310.64L241.78,309.63L263.9,288.9L264.99,287.85L318.45,236.3L319.59,235.3L340.49,217.77L341.67,216.81L363.5,198.03L364.59,196.98L377.31,183.99L378.3,182.84L387.66,170.93L388.53,169.69L393.93,160.56L394.64,159.22L398.76,149.46L399.29,148.03L402.61,134.81L402.88,133.32L404.56,118.26L404.68,116.75L407.7,82.03L407.87,80.52L409.91,56.36L409.99,54.84L412.22,29.18L412.47,27.69L414.16,18.75" style="vector-effect: none; fill: none; stroke: rgb(255, 99, 71); stroke-opacity: 1; stroke-width: 1px; opacity: 1;"/></g><g class="points"/><g class="text"/></g><g class="trace scatter traced8bde5" style="stroke-miterlimit: 2; opacity: 0.3;"><g class="fills"/><g class="errorbars"/><g class="lines"><path class="js-line" d="M22.02,101.55L37.07,124.21L37.87,125.5L51.91,147.02L52.77,148.27L75.44,182.21L76.24,183.5L81.94,194.16L82.54,195.54L85.96,205.55L86.29,207.02L88.2,218.96L88.36,220.46L89.29,243.12L89.32,244.63L90.57,270.29L90.73,271.79L93.05,283.65L93.47,285.1L96.74,293.55L97.41,294.91L101.21,301.43L102.09,302.67L109.61,312.13L110.61,313.26L123.21,326.31L124.3,327.36L137.7,339.58L138.87,340.55L148.58,347.74L149.85,348.55L156.5,352.14L157.92,352.66L166.67,354.96L168.17,355.04L175.7,354.62L177.19,354.41L187.16,350.91L188.52,350.25L200.19,343.27L201.44,342.42L214.73,332.43L215.91,331.48L237.93,313.04L239.07,312.04L261.24,291.48L262.32,290.43L322.33,232.88L323.48,231.9L368.22,193.51L369.28,192.43L381.54,179.07L382.48,177.88L390.37,166.81L391.16,165.52L396.07,156.15L396.68,154.77L399.82,146.27L400.26,144.82L402.66,134.52L402.93,133.03L404.58,118.01L404.69,116.5L408.22,77.36L408.39,75.86L410.34,48.71L410.44,47.2L412.22,29.15L412.48,27.66L414.16,18.75" style="vector-effect: none; fill: none; stroke: rgb(255, 99, 71); stroke-opacity: 1; stroke-width: 1px; opacity: 1;"/></g><g class="points"/><g class="text"/></g><g class="trace scatter traceefa3eb" style="stroke-miterlimit: 2; opacity: 0.3;"><g class="fills"/><g class="errorbars"/><g class="lines"><path class="js-line" d="M27.19,91.2L42.46,114.23L43.27,115.54L60.1,141.22L60.97,142.49L76.53,167.17L77.3,168.5L83.23,180.96L83.77,182.4L86.36,191.23L86.68,192.73L88.23,203.36L88.39,204.89L89.21,227.91L89.23,229.44L90.41,270.88L90.55,272.41L92.86,286.02L93.22,287.51L97.42,299.04L98.08,300.43L101.91,307.07L102.79,308.33L109.41,316.79L110.42,317.94L121.03,329.04L122.14,330.11L137.11,343.3L138.33,344.22L147.24,350.22L148.6,350.94L157.04,354.59L158.53,354.96L166.09,356.18L167.62,356.23L176.74,355.08L178.22,354.67L188.17,350.66L189.52,349.92L201.24,342.62L202.5,341.75L219.5,328.59L220.69,327.61L245.15,306.61L246.29,305.57L272.9,280.08L274,279L318.28,236.45L319.43,235.43L345.36,213.77L346.55,212.8L365.01,196.59L366.12,195.53L377.84,183.38L378.84,182.21L388.25,170.09L389.13,168.83L395.81,156.74L396.43,155.34L400.13,145.26L400.57,143.79L403.12,131.78L403.33,130.26L404.9,113.44L405.01,111.91L407.25,85.9L407.42,84.38L409.79,58.39L409.88,56.85L412.2,29.32L412.45,27.8L414.16,18.75" style="vector-effect: none; fill: none; stroke: rgb(255, 99, 71); stroke-opacity: 1; stroke-width: 1px; opacity: 1;"/></g><g class="points"/><g class="text"/></g><g class="trace scatter trace565b8e" style="stroke-miterlimit: 2; opacity: 0.3;"><g class="fills"/><g class="errorbars"/><g class="lines"><path class="js-line" d="M27.19,86.02L42.56,109.22L43.37,110.53L59.46,135.1L60.33,136.38L74.52,158.5L75.29,159.84L82.37,173.57L82.94,175.01L86.21,185.32L86.53,186.83L88.16,197.52L88.32,199.06L89.1,216.04L89.13,217.59L90.35,270.13L90.48,271.67L92.71,285.39L93.06,286.89L96.52,297.14L97.18,298.53L101.63,306.66L102.51,307.93L110.16,317.64L111.18,318.8L121.93,329.91L123.05,330.97L135.76,342.26L136.99,343.21L147.18,350.18L148.55,350.91L157.04,354.59L158.54,354.96L166.15,356.19L167.69,356.22L176.87,355.06L178.36,354.62L188.36,350.55L189.72,349.81L200.24,343.32L201.51,342.44L215.07,332.18L216.27,331.21L241.07,310.26L242.23,309.23L264.76,288.06L265.87,286.98L318.17,236.55L319.33,235.53L341.84,216.67L343.04,215.69L365.19,196.41L366.31,195.34L378.09,183.08L379.1,181.91L387.65,170.95L388.54,169.68L394.04,160.37L394.76,159L399.43,147.56L399.88,146.08L402.47,135.58L402.74,134.06L404.29,121.79L404.41,120.25L408.72,72.53L408.87,70.99L412.96,24.82L413.24,23.3L414.16,18.75" style="vector-effect: none; fill: none; stroke: rgb(255, 99, 71); stroke-opacity: 1; stroke-width: 1px; opacity: 1;"/></g><g class="points"/><g class="text"/></g><g class="trace scatter trace3c1274" style="stroke-miterlimit: 2; opacity: 0.3;"><g class="fills"/><g class="errorbars"/><g class="lines"><path class="js-line" d="M27.19,96.37L43.1,120.44L43.9,121.73L59.73,145.85L60.58,147.11L72.93,166.24L73.72,167.54L80.98,180.87L81.61,182.25L84.86,190.76L85.28,192.22L87.51,202.6L87.73,204.1L88.84,217.72L88.91,219.23L91.03,273.83L91.26,275.33L93.22,284.22L93.64,285.68L96.36,292.76L97.03,294.13L101.61,301.99L102.49,303.23L110.1,312.68L111.11,313.82L122.72,325.83L123.81,326.89L138.41,340.17L139.58,341.14L148.12,347.45L149.4,348.26L156.05,351.91L157.45,352.49L166.22,354.88L167.72,355.03L176.79,354.47L178.26,354.11L186.83,351.06L188.2,350.41L199.95,343.44L201.2,342.58L214.56,332.57L215.75,331.62L243.55,308.05L244.68,307.04L268.89,284.02L269.98,282.96L314.71,239.66L315.84,238.64L334.3,222.84L335.47,221.88L362.12,199.3L363.24,198.28L378.09,183.08L379.08,181.93L387.5,171.17L388.37,169.92L393.81,160.8L394.52,159.46L398.68,149.69L399.21,148.26L402.57,135.03L402.84,133.53L404.43,119.96L404.55,118.45L412.02,30.71L412.22,29.2L414.16,18.75" style="vector-effect: none; fill: none; stroke: rgb(255, 99, 71); stroke-opacity: 1; stroke-width: 1px; opacity: 1;"/></g><g class="points"/><g class="text"/></g><g class="trace scatter tracef6a0c1" style="stroke-miterlimit: 2; opacity: 0.3;"><g class="fills"/><g class="errorbars"/><g class="lines"><path class="js-line" d="M27.19,91.2L41.6,112.83L42.4,114.13L58.24,138.48L59.1,139.74L74.81,164.18L75.57,165.5L82.53,179.1L83.07,180.53L86.26,190.74L86.57,192.23L88.17,202.81L88.33,204.33L89.16,224.18L89.19,225.71L90.39,268.5L90.55,270.02L92.27,280.57L92.59,282.07L96.07,292.18L96.74,293.55L101.27,301.52L102.16,302.76L109.78,312.32L110.79,313.46L123.55,326.64L124.65,327.71L138.24,340.03L139.41,341L148.01,347.37L149.29,348.2L157.39,352.47L158.83,352.98L166.22,354.88L167.73,355.03L175.34,354.67L176.86,354.46L185.55,351.59L186.96,351L196.31,345.81L197.62,345.01L212.46,334.23L213.66,333.29L240.6,310.69L241.74,309.67L264.05,288.76L265.14,287.69L320.25,234.71L321.4,233.7L347.26,212.2L348.44,211.23L367.81,193.91L368.89,192.82L381.31,179.33L382.27,178.14L391.08,165.66L391.88,164.35L396.67,154.79L397.3,153.4L401.46,140.3L401.82,138.81L403.79,126.74L403.95,125.22L409.71,59.74L409.8,58.21L412.21,29.27L412.46,27.76L414.16,18.75" style="vector-effect: none; fill: none; stroke: rgb(255, 99, 71); stroke-opacity: 1; stroke-width: 1px; opacity: 1;"/></g><g class="points"/><g class="text"/></g><g class="trace scatter trace741385" style="stroke-miterlimit: 2; opacity: 0.3;"><g class="fills"/><g class="errorbars"/><g class="lines"><path class="js-line" d="M22.02,91.2L37.33,114.28L38.14,115.59L53.34,138.75L54.22,140.02L75.56,172.04L76.37,173.35L82.72,185.65L83.29,187.08L86.11,195.86L86.44,197.36L88.12,208L88.29,209.53L89.14,227.98L89.17,229.52L90.57,272.58L90.76,274.11L92.91,286.22L93.28,287.72L96.87,297.87L97.52,299.26L102.06,307.29L102.94,308.55L109.6,317.01L110.62,318.17L121.27,329.28L122.38,330.34L136.19,342.6L137.42,343.53L147.61,350.41L148.97,351.13L156,354.24L157.47,354.69L166.55,356.23L168.09,356.2L177.22,354.99L178.68,354.51L187.26,351.12L188.62,350.41L200.43,343.18L201.7,342.3L215.19,332.08L216.39,331.11L238.78,312.3L239.93,311.28L262.46,290.3L263.56,289.23L320.14,234.81L321.29,233.79L346.15,213.13L347.33,212.15L365.79,195.84L366.9,194.78L378.57,182.52L379.58,181.35L388.04,170.39L388.92,169.13L395.04,158.46L395.67,157.05L400.04,145.55L400.48,144.08L402.83,133.57L403.09,132.05L404.89,113.67L404.99,112.14L407.58,83.01L407.76,81.48L409.96,55.41L410.05,53.87L411.99,30.87L412.2,29.34L414.16,18.75" style="vector-effect: none; fill: none; stroke: rgb(255, 99, 71); stroke-opacity: 1; stroke-width: 1px; opacity: 1;"/></g><g class="points"/><g class="text"/></g><g class="trace scatter trace5d11a8" style="stroke-miterlimit: 2; opacity: 0.3;"><g class="fills"/><g class="errorbars"/><g class="lines"><path class="js-line" d="M32.37,86.02L48.5,110.48L49.31,111.8L66.97,138.95L67.8,140.25L77.2,156.19L77.92,157.55L83.06,168.77L83.56,170.22L86.52,180.6L86.81,182.11L88.28,192.8L88.43,194.34L89.21,217.46L89.22,219L90.46,271.42L90.62,272.95L92.65,285.11L93,286.62L96.39,296.85L97.05,298.25L102.32,307.65L103.2,308.92L109.91,317.37L110.93,318.53L121.64,329.63L122.75,330.69L136.63,342.93L137.86,343.86L148.12,350.68L149.48,351.41L156.55,354.46L158.05,354.84L165.63,356.14L167.17,356.25L176.34,355.16L177.83,354.79L187.86,350.83L189.21,350.09L201,342.78L202.27,341.91L216.96,330.65L218.16,329.68L241.68,309.72L242.83,308.69L261.97,290.77L263.08,289.7L320.91,234.13L322.07,233.11L368.83,192.89L369.91,191.79L381.36,179.28L382.32,178.07L390.39,166.79L391.19,165.47L395.55,157.31L396.18,155.9L399.96,145.8L400.41,144.33L402.79,133.8L403.05,132.28L404.87,113.87L404.98,112.33L407.57,83.14L407.75,81.61L409.96,55.48L410.04,53.94L412.2,29.37L412.45,27.84L414.16,18.75" style="vector-effect: none; fill: none; stroke: rgb(255, 99, 71); stroke-opacity: 1; stroke-width: 1px; opacity: 1;"/></g><g class="points"/><g class="text"/></g><g class="trace scatter trace59a8ef" style="stroke-miterlimit: 2; opacity: 1;"><g class="fills"/><g class="errorbars"/><g class="lines"><path class="js-line" d="M27.19,91.2L41.55,112.95L42.35,114.26L58.13,138.72L58.99,139.99L73.87,163.21L74.66,164.56L81.75,178.41L82.39,179.84L86.18,191.66L86.49,193.17L88.13,203.8L88.28,205.33L89.1,222.15L89.13,223.68L90.61,271.09L90.79,272.62L93.19,284.64L93.62,286.12L97.02,294.74L97.69,296.14L102.51,304.11L103.4,305.39L111.19,315.16L112.21,316.32L126.16,330.71L127.27,331.76L141.02,343.74L142.23,344.65L151.03,350.47L152.37,351.18L159.32,354.02L160.76,354.38L166.72,355.09L168.25,355.1L175.84,354.6L177.35,354.35L186.01,351.4L187.41,350.8L198.01,344.75L199.28,343.9L215.2,332.05L216.4,331.09L238.62,312.44L239.77,311.43L264.32,288.5L265.41,287.43L318.17,236.55L319.32,235.54L340.38,217.87L341.56,216.9L363.55,197.98L364.66,196.92L377.46,183.82L378.45,182.66L387.86,170.64L388.74,169.39L394.85,158.82L395.5,157.44L399.89,146.05L400.33,144.59L402.72,134.18L402.99,132.67L404.73,115.97L404.83,114.45L407.99,79.47L408.16,77.95L409.98,55.12L410.06,53.59L412.21,29.26L412.46,27.75L414.16,18.75" style="vector-effect: none; fill: none; stroke: rgb(65, 105, 225); stroke-opacity: 1; stroke-dasharray: 9px, 9px; stroke-width: 3px; opacity: 1;"/></g><g class="points"/><g class="text"/></g></g></g></g><g class="zerolinelayer-above"/><path class="xlines-above crisp" d="M74,435.5H507M74,59.5H507" style="fill: none; stroke-width: 1px; stroke: rgb(0, 0, 0); stroke-opacity: 1;"/><path class="ylines-above crisp" d="M74.5,60V435M506.5,60V435" style="fill: none; stroke-width: 1px; stroke: rgb(0, 0, 0); stroke-opacity: 1;"/><g class="overlines-above"/><g class="xaxislayer-above"><path class="xtick ticks crisp" d="M0,436v4" transform="translate(102.39,0)" style="stroke: rgb(0, 0, 0); stroke-opacity: 1; stroke-width: 1px;"/><path class="xtick ticks crisp" d="M0,436v4" transform="translate(205.89,0)" style="stroke: rgb(0, 0, 0); stroke-opacity: 1; stroke-width: 1px;"/><path class="xtick ticks crisp" d="M0,436v4" transform="translate(309.38,0)" style="stroke: rgb(0, 0, 0); stroke-opacity: 1; stroke-width: 1px;"/><path class="xtick ticks crisp" d="M0,436v4" transform="translate(412.88,0)" style="stroke: rgb(0, 0, 0); stroke-opacity: 1; stroke-width: 1px;"/><g class="xtick"><text text-anchor="middle" x="0" y="459.2" transform="translate(102.39,0)" style="font-family: 'Times New Roman'; font-size: 16px; fill: rgb(0, 0, 0); fill-opacity: 1; white-space: pre;">−2</text></g><g class="xtick"><text text-anchor="middle" x="0" y="459.2" style="font-family: 'Times New Roman'; font-size: 16px; fill: rgb(0, 0, 0); fill-opacity: 1; white-space: pre;" transform="translate(205.89,0)">−1</text></g><g class="xtick"><text text-anchor="middle" x="0" y="459.2" style="font-family: 'Times New Roman'; font-size: 16px; fill: rgb(0, 0, 0); fill-opacity: 1; white-space: pre;" transform="translate(309.38,0)">0</text></g><g class="xtick"><text text-anchor="middle" x="0" y="459.2" style="font-family: 'Times New Roman'; font-size: 16px; fill: rgb(0, 0, 0); fill-opacity: 1; white-space: pre;" transform="translate(412.88,0)">1</text></g></g><g class="yaxislayer-above"><path class="ytick ticks crisp" d="M74,0h-4" transform="translate(0,410.45)" style="stroke: rgb(0, 0, 0); stroke-opacity: 1; stroke-width: 1px;"/><path class="ytick ticks crisp" d="M74,0h-4" transform="translate(0,358.7)" style="stroke: rgb(0, 0, 0); stroke-opacity: 1; stroke-width: 1px;"/><path class="ytick ticks crisp" d="M74,0h-4" transform="translate(0,306.95)" style="stroke: rgb(0, 0, 0); stroke-opacity: 1; stroke-width: 1px;"/><path class="ytick ticks crisp" d="M74,0h-4" transform="translate(0,255.2)" style="stroke: rgb(0, 0, 0); stroke-opacity: 1; stroke-width: 1px;"/><path class="ytick ticks crisp" d="M74,0h-4" transform="translate(0,203.45)" style="stroke: rgb(0, 0, 0); stroke-opacity: 1; stroke-width: 1px;"/><path class="ytick ticks crisp" d="M74,0h-4" transform="translate(0,151.7)" style="stroke: rgb(0, 0, 0); stroke-opacity: 1; stroke-width: 1px;"/><path class="ytick ticks crisp" d="M74,0h-4" transform="translate(0,99.96000000000001)" style="stroke: rgb(0, 0, 0); stroke-opacity: 1; stroke-width: 1px;"/><g class="ytick"><text text-anchor="end" x="66.8" y="5.6" transform="translate(0,410.45)" style="font-family: 'Times New Roman'; font-size: 16px; fill: rgb(0, 0, 0); fill-opacity: 1; white-space: pre;">−1.5</text></g><g class="ytick"><text text-anchor="end" x="66.8" y="5.6" style="font-family: 'Times New Roman'; font-size: 16px; fill: rgb(0, 0, 0); fill-opacity: 1; white-space: pre;" transform="translate(0,358.7)">−1</text></g><g class="ytick"><text text-anchor="end" x="66.8" y="5.6" style="font-family: 'Times New Roman'; font-size: 16px; fill: rgb(0, 0, 0); fill-opacity: 1; white-space: pre;" transform="translate(0,306.95)">−0.5</text></g><g class="ytick"><text text-anchor="end" x="66.8" y="5.6" style="font-family: 'Times New Roman'; font-size: 16px; fill: rgb(0, 0, 0); fill-opacity: 1; white-space: pre;" transform="translate(0,255.2)">0</text></g><g class="ytick"><text text-anchor="end" x="66.8" y="5.6" style="font-family: 'Times New Roman'; font-size: 16px; fill: rgb(0, 0, 0); fill-opacity: 1; white-space: pre;" transform="translate(0,203.45)">0.5</text></g><g class="ytick"><text text-anchor="end" x="66.8" y="5.6" style="font-family: 'Times New Roman'; font-size: 16px; fill: rgb(0, 0, 0); fill-opacity: 1; white-space: pre;" transform="translate(0,151.7)">1</text></g><g class="ytick"><text text-anchor="end" x="66.8" y="5.6" style="font-family: 'Times New Roman'; font-size: 16px; fill: rgb(0, 0, 0); fill-opacity: 1; white-space: pre;" transform="translate(0,99.96000000000001)">1.5</text></g></g><g class="overaxes-above"/></g></g><g class="polarlayer"/><g class="smithlayer"/><g class="ternarylayer"/><g class="geolayer"/><g class="funnelarealayer"/><g class="pielayer"/><g class="iciclelayer"/><g class="treemaplayer"/><g class="sunburstlayer"/><g class="glimages"/><defs id="topdefs-90c9c9"><g class="clips"/><clipPath id="legend90c9c9"><rect width="173" height="68" x="0" y="0"/></clipPath></defs><g class="layer-above"><g class="imagelayer"/><g class="shapelayer"/></g><g class="infolayer"><g class="legend" pointer-events="all" transform="translate(514.62,60)"><rect class="bg" shape-rendering="crispEdges" style="stroke: rgb(68, 68, 68); stroke-opacity: 1; fill: rgb(255, 255, 255); fill-opacity: 1; stroke-width: 0px;" width="173" height="68" x="0" y="0"/><g class="scrollbox" transform="" clip-path="url(#legend90c9c9)"><g class="groups" transform=""><g class="traces" transform="translate(0,16.9)" style="opacity: 1;"><text class="legendtext" text-anchor="start" x="40" y="6.24" style="font-family: 'Times New Roman'; font-size: 16px; fill: rgb(42, 63, 95); fill-opacity: 1; white-space: pre;">Plans</text><g class="layers" style="opacity: 0.3;"><g class="legendfill"/><g class="legendlines"><path class="js-line" d="M5,0h30" style="fill: none; stroke: rgb(255, 99, 71); stroke-opacity: 1; stroke-width: 1px;"/></g><g class="legendsymbols"><g class="legendpoints"/></g></g><rect class="legendtoggle" x="0" y="-11.9" width="167.984375" height="23.8" style="fill: rgb(0, 0, 0); fill-opacity: 0;"/></g></g><g class="groups" transform="translate(0,10)"><g class="traces" transform="translate(0,40.7)" style="opacity: 1;"><text class="legendtext" text-anchor="start" x="40" y="6.24" style="font-family: 'Times New Roman'; font-size: 16px; fill: rgb(42, 63, 95); fill-opacity: 1; white-space: pre;">Mediana dos planos</text><g class="layers" style="opacity: 1;"><g class="legendfill"/><g class="legendlines"><path class="js-line" d="M5,0h30" style="fill: none; stroke: rgb(65, 105, 225); stroke-opacity: 1; stroke-dasharray: 9px, 9px; stroke-width: 3px;"/></g><g class="legendsymbols"><g class="legendpoints"/></g></g><rect class="legendtoggle" x="0" y="-11.9" width="167.984375" height="23.8" style="fill: rgb(0, 0, 0); fill-opacity: 0;"/></g></g></g><rect class="scrollbar" rx="20" ry="3" width="0" height="0" style="fill: rgb(128, 139, 164); fill-opacity: 1;" x="0" y="0"/></g><g class="g-gtitle"><text class="gtitle" x="350" y="30" text-anchor="middle" dy="0em" style="opacity: 1; font-family: 'Times New Roman'; font-size: 20px; fill: rgb(0, 0, 0); fill-opacity: 1; white-space: pre;">Planos — Uma Câmera + Mediana</text></g><g class="g-xtitle"><text class="xtitle" x="290.5" y="487.9001953125" text-anchor="middle" style="opacity: 1; font-family: 'Times New Roman'; font-size: 16px; fill: rgb(0, 0, 0); fill-opacity: 1; white-space: pre;">X (m)</text></g><g class="g-ytitle"><text class="ytitle" transform="rotate(-90,17.6685546875,247.5)" x="17.6685546875" y="247.5" text-anchor="middle" style="opacity: 1; font-family: 'Times New Roman'; font-size: 16px; fill: rgb(0, 0, 0); fill-opacity: 1; white-space: pre;">Y (m)</text></g></g></svg>