<svg class="main-svg" xmlns="http://www.w3.org/2000/svg" xmlns:xlink="http://www.w3.org/1999/xlink" width="700" height="500" style="" viewBox="0 0 700 500"><rect x="0" y="0" width="700" height="500" style="fill: rgb(255, 255, 255); fill-opacity: 1;"/><defs id="defs-b45b2e"><g class="clips"><clipPath id="clipb45b2exyplot" class="plotclip"><rect width="456" height="380"/></clipPath><clipPath class="axesclip" id="clipb45b2ex"><rect x="65" y="0" width="456" height="500"/></clipPath><clipPath class="axesclip" id="clipb45b2ey"><rect x="0" y="60" width="700" height="380"/></clipPath><clipPath class="axesclip" id="clipb45b2exy"><rect x="65" y="60" width="456" height="380"/></clipPath></g><g class="gradients"/><g class="patterns"/></defs><g class="bglayer"/><g class="layer-below"><g class="imagelayer"/><g class="shapelayer"/></g><g class="cartesianlayer"><g class="subplot xy"><g class="layer-subplot"><g class="shapelayer"/><g class="imagelayer"/></g><g class="minor-gridlayer"><g class="x"/><g class="y"/></g><g class="gridlayer"><g class="x"><path class="xgrid crisp" transform="translate(150.76999999999998,0)" d="M0,60v380" style="stroke: rgb(211, 211, 211); stroke-opacity: 1; stroke-width: 0.5px;"/><path class="xgrid crisp" transform="translate(247.13,0)" d="M0,60v380" style="stroke: rgb(211, 211, 211); stroke-opacity: 1; stroke-width: 0.5px;"/><path class="xgrid crisp" transform="translate(439.85,0)" d="M0,60v380" style="stroke: rgb(211, 211, 211); stroke-opacity: 1; stroke-width: 0.5px;"/></g><g class="y"><path class="ygrid crisp" transform="translate(0,437.52)" d="M65,0h456" style="stroke: rgb(211, 211, 211); stroke-opacity: 1; stroke-width: 0.5px;"/><path class="ygrid crisp" transform="translate(0,389.34)" d="M65,0h456" style="stroke: rgb(211, 211, 211); stroke-opacity: 1; stroke-width: 0.5px;"/><path class="ygrid crisp" transform="translate(0,341.16)" d="M65,0h456" style="stroke: rgb(211, 211, 211); stroke-opacity: 1; stroke-width: 0.5px;"/><path class="ygrid crisp" transform="translate(0,244.81)" d="M65,0h456" style="stroke: rgb(211, 211, 211); stroke-opacity: 1; stroke-width: 0.5px;"/><path class="ygrid crisp" transform="translate(0,196.63)" d="M65,0h456" style="stroke: rgb(211, 211, 211); stroke-opacity: 1; stroke-width: 0.5px;"/><path class="ygrid crisp" transform="translate(0,148.45)" d="M65,0h456" style="stroke: rgb(211, 211, 211); stroke-opacity: 1; stroke-width: 0.5px;"/><path class="ygrid crisp" transform="translate(0,100.27000000000001)" d="M65,0h456" style="stroke: rgb(211, 211, 211); stroke-opacity: 1; stroke-width: 0.5px;"/></g></g><g class="zerolinelayer"><path class="xzl zl crisp" transform="translate(343.49,0)" d="M0,60v380" style="stroke: rgb(255, 255, 255); stroke-opacity: 1; stroke-width: 2px;"/><path class="yzl zl crisp" transform="translate(0,292.99)" d="M65,0h456" style="stroke: rgb(255, 255, 255); stroke-opacity: 1; stroke-width: 2px;"/></g><g class="layer-between"><g class="shapelayer"/><g class="imagelayer"/></g><path class="xlines-below"/><path class="ylines-below"/><g class="overlines-below"/><g class="xaxislayer-below"/><g class="yaxislayer-below"/><g class="overaxes-below"/><g class="overplot"><g class="xy" transform="translate(65,60)" clip-path="url(#clipb45b2exyplot)"><g class="scatterlayer mlayer"><g class="trace scatter traceb72810" style="stroke-miterlimit: 2; opacity: 0.3;"><g class="fills"/><g class="errorbars"/><g class="lines"><path class="js-line" d="M5.07,29.66L20.78,52.44L22.27,53.12L42.69,63.36L44.11,64.16L66.67,77.23L67.71,78.49L95.37,112.77L96.12,114.22L117.65,154.52L118.59,155.86L147.56,197.3L147.69,198.93L151.05,249.42L151.02,251.05L150.47,291.85L150.76,293.46L154.89,314.14L156.05,315.29L177.18,335.67L178.5,336.63L207.88,357L209.51,356.98L230.6,356.09L232.11,355.46L271.05,338.75L272.33,337.73L311.54,305.75L312.69,304.59L344.4,273.99L345.65,272.94L372.67,249.34L373.73,248.09L401.83,214.17L402.62,212.74L422.02,176.85L422.61,175.32L436.88,137.12L437.16,135.51L444.87,88.85L444.77,87.22L443.64,67.65" style="vector-effect: none; fill: none; stroke: rgb(255, 99, 71); stroke-opacity: 1; stroke-width: 1px; opacity: 1;"/></g><g class="points"/><g class="text"/></g><g class="trace scatter tracee5c13e" style="stroke-miterlimit: 2; opacity: 0.3;"><g class="fills"/><g class="errorbars"/><g class="lines"><path class="js-line" d="M7.61,33.11L27.39,60.82L28.04,62.31L35.63,78.13L37.22,78.48L62.53,84.22L63.49,85.53L96.51,131.79L97.39,133.15L121.42,171.73L122.16,173.17L136.72,202.16L137.03,203.75L146.14,254.89L146.26,256.51L149.77,295.26L150.38,296.77L160.33,320.71L161.53,321.8L187.04,344.33L188.52,345L215.23,356.62L216.84,356.37L248.84,351.12L250.26,350.32L289.6,327.61L290.79,326.5L370.86,252.81L372.07,251.72L388.47,236.12L389.13,234.64L408.97,191.96L409.82,190.58L429.03,158.61L429.5,157.05L442.06,113.39L442.25,111.78L446.93,74.77L447.64,73.31L451.25,64.74" style="vector-effect: none; fill: none; stroke: rgb(255, 99, 71); stroke-opacity: 1; stroke-width: 1px; opacity: 1;"/></g><g class="points"/><g class="text"/></g><g class="trace scatter trace963252" style="stroke-miterlimit: 2; opacity: 0.3;"><g class="fills"/><g class="errorbars"/><g class="lines"><path class="js-line" d="M13.27,43.47L23.42,64.93L24.99,65.25L54.9,71.24L55.98,72.4L87.19,109.07L88.14,110.36L119.79,154.8L120.63,156.17L135.92,182.44L136.18,184.02L143.38,230L143.44,231.6L145.88,279.68L146.08,281.27L150.09,309.76L151.28,310.84L189.81,344.81L191.04,345.84L202.17,355.02L203.71,355.48L222.17,360.99L223.64,360.4L259.87,343.21L261.23,342.36L296.25,319.7L297.47,318.66L341.31,281L342.51,279.93L368.49,256.01L369.64,254.9L396.81,227.67L397.67,226.31L417.79,193.51L418.37,192.01L432.75,152.89L433.02,151.3L440.41,103.74L440.51,102.14L442.69,76.72L443.72,75.49L444.75,74.25L444.8,72.8L444.42,71.24" style="vector-effect: none; fill: none; stroke: rgb(255, 99, 71); stroke-opacity: 1; stroke-width: 1px; opacity: 1;"/></g><g class="points"/><g class="text"/></g><g class="trace scatter trace7313aa" style="stroke-miterlimit: 2; opacity: 0.3;"><g class="fills"/><g class="errorbars"/><g class="lines"><path class="js-line" d="M9.19,25.11L8.49,24.9L9.65,26.03L10.81,27.17L23.91,39.15L25.3,39.98L50.05,55.18L50.56,56.71L55.9,71.97L56.9,73.24L82.49,106.64L83.34,108.02L112.17,153L113.09,154.34L129.09,178.63L129.68,180.14L144.09,217.91L144.23,219.52L151.04,303.37L151.89,304.75L163.19,322.45L164.52,323.38L197.96,346.17L199.35,347L216.06,356.91L217.37,356.49L232.98,344.97L234.38,344.16L296.24,308.79L297.65,308L309.97,300.21L311.33,299.32L340.87,279.48L342.07,278.4L373.96,248.52L375.05,247.32L402.21,217.33L402.89,215.86L419.89,177.38L420.37,175.83L437,119.96L437.43,118.4L442.84,96.48L442.66,94.88L439.98,70.73L440.68,69.35L442.54,66.7" style="vector-effect: none; fill: none; stroke: rgb(255, 99, 71); stroke-opacity: 1; stroke-width: 1px; opacity: 1;"/></g><g class="points"/><g class="text"/></g><g class="trace scatter trace38a9c1" style="stroke-miterlimit: 2; opacity: 0.3;"><g class="fills"/><g class="errorbars"/><g class="lines"><path class="js-line" d="M4.76,26.81L31.64,48.2L33.1,48.94L56.46,60.8L57.04,62.17L59.82,81.52L60.8,82.84L91.48,125.29L92.37,126.67L108.65,153.15L109.37,154.62L128.86,196.11L129.49,197.62L146.06,238.55L146.3,240.17L152.16,282.3L152.17,283.94L152.88,308.33L153.86,309.65L167.08,326.23L168.37,327.23L197.16,348.81L198.61,349.57L220.42,360.48L222.01,360.08L251.92,351.84L253.33,350.99L290.94,327.82L292.19,326.76L327.88,295.46L329.05,294.31L359.95,265.05L361.19,263.97L388.22,240.22L388.98,238.78L411.36,195.05L412.03,193.56L427.69,157.54L428.2,155.99L440.39,116.94L440.65,115.33L447.78,76.74L448.32,75.19L450.18,68.95L450.14,67.32L449.05,66.26" style="vector-effect: none; fill: none; stroke: rgb(255, 99, 71); stroke-opacity: 1; stroke-width: 1px; opacity: 1;"/></g><g class="points"/><g class="text"/></g><g class="trace scatter traceacc273" style="stroke-miterlimit: 2; opacity: 0.3;"><g class="fills"/><g class="errorbars"/><g class="lines"><path class="js-line" d="M5.32,19L30.97,37.14L32.55,37.67L50.98,44.52L51.69,46.02L69.23,81.67L70.3,82.94L95.51,113.73L96.46,115.09L118.63,148.11L119.43,149.57L136.47,181.72L136.7,183.36L149.07,277.1L149.16,278.75L151.52,311.62L152.76,312.72L194.19,348.49L195.45,349.57L201.94,354.61L203.55,354.99L222.91,359.61L224.3,359L236.26,350.17L237.74,349.42L278.85,327.93L280.11,326.86L321.11,293.17L322.43,292.16L358.79,263.27L360.06,262.21L382.67,242.76L383.77,241.52L409.84,211.51L410.43,209.95L425.51,167.81L425.94,166.21L443.91,95.47L443.93,93.82L444.77,69.17L446.02,68.08L447.27,66.99L447.22,66.01" style="vector-effect: none; fill: none; stroke: rgb(255, 99, 71); stroke-opacity: 1; stroke-width: 1px; opacity: 1;"/></g><g class="points"/><g class="text"/></g><g class="trace scatter trace898c80" style="stroke-miterlimit: 2; opacity: 0.3;"><g class="fills"/><g class="errorbars"/><g class="lines"><path class="js-line" d="M5.52,41.39L13.99,55.23L15.57,55.6L45.25,63.35L46.31,64.57L102.03,130.27L102.96,131.6L125.76,165.14L126.21,166.7L140.15,216.78L140.36,218.39L146.85,273.26L146.97,274.88L149.24,300.73L150.15,302.07L170.66,331.26L171.91,332.31L199.57,354.76L201.16,355.11L229.68,360.65L231.17,360L268.04,343.15L269.25,342.07L375.52,248.78L376.77,247.74L397.5,229.61L398.42,228.27L418.11,198.49L418.64,196.95L433.21,152.18L433.51,150.58L443.3,92.89L443.52,91.28L446.08,70.31L445.94,68.83L443.28,66.97" style="vector-effect: none; fill: none; stroke: rgb(255, 99, 71); stroke-opacity: 1; stroke-width: 1px; opacity: 1;"/></g><g class="points"/><g class="text"/></g><g class="trace scatter trace1fcc53" style="stroke-miterlimit: 2; opacity: 0.3;"><g class="fills"/><g class="errorbars"/><g class="lines"><path class="js-line" d="M10.59,25.13L24.87,38.19L26.26,39.01L49.44,53.29L49.62,54.9L52.02,70.71L52.96,72.02L86.26,119.71L87.15,121.05L124.13,175.95L124.46,177.53L134.68,229.84L134.87,231.44L141.28,277.85L141.56,279.44L146.56,306.39L147.49,307.72L161.81,327.1L163.25,327.85L199.32,345.92L200.86,346.42L220.8,353L221.91,351.82L230.21,342L230.96,340.57L233.74,336.72L235.16,336.14L254.39,337.2L255.75,336.32L304.97,305.34L306.36,304.5L325.37,292.31L326.61,291.27L368.38,255.6L369.58,254.52L388.3,236.95L388.66,235.37L400.02,188.36L400.93,187.02L421.41,156.08L422.02,154.58L437.22,115.47L437.54,113.88L446.14,69.47" style="vector-effect: none; fill: none; stroke: rgb(255, 99, 71); stroke-opacity: 1; stroke-width: 1px; opacity: 1;"/></g><g class="points"/><g class="text"/></g><g class="trace scatter trace028ff8" style="stroke-miterlimit: 2; opacity: 0.3;"><g class="fills"/><g class="errorbars"/><g class="lines"><path class="js-line" d="M6.77,42.43L37.48,58.52L38.89,59.23L57.07,68.61L58.12,69.78L87.89,104.39L88.72,105.73L110.47,142.27L111.14,143.7L130.12,185.24L130.58,186.75L146.35,241.2L146.52,242.77L152.13,291.3L152.38,292.86L156.16,312.81L157.34,313.87L182.16,335.69L183.56,336.43L214.18,352.58L215.75,352.44L226.58,350.85L227.99,350.15L274.24,326.36L275.63,325.61L308.54,307.05L309.79,306.09L343.12,279.67L344.24,278.57L378.76,244L379.85,242.85L400.24,220.98L400.81,219.51L428.84,149.24L429.44,147.78L431.72,140.28L432.01,138.73L440.68,90.66L440.8,89.09L442.28,70.23" style="vector-effect: none; fill: none; stroke: rgb(255, 99, 71); stroke-opacity: 1; stroke-width: 1px; opacity: 1;"/></g><g class="points"/><g class="text"/></g><g class="trace scatter traceab2945" style="stroke-miterlimit: 2; opacity: 0.3;"><g class="fills"/><g class="errorbars"/><g class="lines"><path class="js-line" d="M9.05,25.83L29.76,52.73L30.45,54.2L37.3,68.88L38.89,69.02L62.93,70.85L63.93,72.13L89.25,105.75L90.12,107.13L111.91,143.15L112.66,144.58L128.48,176.46L128.97,178.01L142.24,221.33L142.41,222.95L147.53,281.03L147.63,282.65L149.43,303.47L150.41,304.77L166.21,325.24L167.59,326.09L206.58,349.25L208.01,350.01L220.89,356.85L222.37,356.71L253.82,343.93L255.11,342.94L313.22,298.92L314.52,297.96L354.4,267.43L355.61,266.36L389.09,235.92L389.77,234.45L415.29,180.21L416,178.76L428.14,152.25L428.76,150.76L441.43,119.25L441.65,117.64L446.73,75.86L446.74,74.24L446.87,72.03" style="vector-effect: none; fill: none; stroke: rgb(255, 99, 71); stroke-opacity: 1; stroke-width: 1px; opacity: 1;"/></g><g class="points"/><g class="text"/></g><g class="trace scatter trace4eefbe" style="stroke-miterlimit: 2; opacity: 0.3;"><g class="fills"/><g class="errorbars"/><g class="lines"><path class="js-line" d="M10.11,30.22L49.13,55.18L50.45,56.08L53,57.96L53.73,59.39L71,91.78L71.91,93.09L114.49,154.93L115.25,156.33L134.32,196.72L134.59,198.29L143.82,253.41L143.87,255L145.44,294.88L146.37,296.18L169.27,326.77L170.59,327.66L199.84,347.06L201.36,347.53L221.2,353.68L222.72,353.26L249.85,343.88L251.25,343.12L291.7,320.66L292.89,319.6L340.28,276.74L341.45,275.65L358.3,260.97L359.56,260L387.09,238.25L387.99,236.93L411.77,201L412.36,199.52L428.88,156.27L429.32,154.73L440.35,113.09L440.53,111.5L444.63,78.26L445.3,76.81L447.37,72.53L448.92,72.14L447.92,71.41" style="vector-effect: none; fill: none; stroke: rgb(255, 99, 71); stroke-opacity: 1; stroke-width: 1px; opacity: 1;"/></g><g class="points"/><g class="text"/></g><g class="trace scatter trace9a44f6" style="stroke-miterlimit: 2; opacity: 0.3;"><g class="fills"/><g class="errorbars"/><g class="lines"><path class="js-line" d="M6.23,26.7L24.77,51.37L25.43,52.86L30.85,64.57L32.41,65.05L64.9,75.33L65.86,76.64L95.13,117.68L95.95,119.1L121.27,164.57L121.94,166.04L135.91,197.19L136.13,198.8L142.32,247.21L142.42,248.83L145.24,289.37L145.73,290.92L155.54,321.95L156.94,322.79L190.8,342.17L192.28,342.86L215.92,353.78L217.39,353.54L240.57,341.72L241.98,340.9L298.66,308.91L300.08,308.12L311.14,301.27L312.5,300.38L342.04,280.23L343.23,279.12L377.23,246.44L378.31,245.22L404.22,216.01L404.91,214.53L422.36,176.04L422.76,174.46L437.61,114.44L437.97,112.85L441.42,95.35L441.39,93.72L441.32,67.84L442.36,66.59L443.41,65.35" style="vector-effect: none; fill: none; stroke: rgb(255, 99, 71); stroke-opacity: 1; stroke-width: 1px; opacity: 1;"/></g><g class="points"/><g class="text"/></g><g class="trace scatter trace46b9b9" style="stroke-miterlimit: 2; opacity: 0.3;"><g class="fills"/><g class="errorbars"/><g class="lines"><path class="js-line" d="M4.12,24.52L28.07,53.26L28.75,54.74L38.32,75.42L39.95,75.36L62.75,74.5L63.84,75.7L90.67,106.29L91.44,107.72L125.11,169.18L125.91,170.6L131.63,182.22L131.98,183.81L142.58,236.52L142.81,238.13L154.38,315.2L155.64,316.23L181.26,336.31L182.66,337.15L207.97,351.68L209.6,351.71L224.24,351.86L225.72,351.18L265.47,332.38L266.85,331.52L303.99,307.97L305.27,306.96L341.94,277.18L343.13,276.06L398.4,223.11L399.07,221.62L421.93,169.37L422.53,167.86L433.78,137.34L434.02,135.73L440.86,85.7L440.94,84.07L441.78,67.8" style="vector-effect: none; fill: none; stroke: rgb(255, 99, 71); stroke-opacity: 1; stroke-width: 1px; opacity: 1;"/></g><g class="points"/><g class="text"/></g><g class="trace scatter trace418bd3" style="stroke-miterlimit: 2; opacity: 0.3;"><g class="fills"/><g class="errorbars"/><g class="lines"><path class="js-line" d="M7.15,31.62L22.47,56.16L23.88,56.95L63.72,78.19L65.15,78.94L67.51,81.03L68.51,82.29L96.18,117.9L96.92,119.33L118.58,162.55L119.16,164.05L132.95,201.9L133.39,203.46L145.93,250.12L146.1,251.73L151.84,299.73L152.14,301.32L154.89,315.54L156.15,316.55L176.61,332.22L177.95,333.12L206.4,351.36L207.89,351.99L224.24,358.83L225.63,358.01L246.13,345.21L247.44,344.27L289.77,314.8L291.13,313.94L331.71,287.62L333.05,286.72L351.34,273.58L352.5,272.46L384.47,240.67L385.39,239.35L409.85,203.38L410.56,201.94L426.68,168.59L427.01,167.01L442.76,86.3L443.05,84.72L443.57,78.31L443.62,76.7L443.92,67.03" style="vector-effect: none; fill: none; stroke: rgb(255, 99, 71); stroke-opacity: 1; stroke-width: 1px; opacity: 1;"/></g><g class="points"/><g class="text"/></g><g class="trace scatter trace4229ad" style="stroke-miterlimit: 2; opacity: 0.3;"><g class="fills"/><g class="errorbars"/><g class="lines"><path class="js-line" d="M9.93,26.13L40.41,44.83L41.89,45.51L54.67,52.14L55.28,53.64L68.41,85.14L69.36,86.46L101.91,133.16L102.78,134.54L117.22,158.07L117.69,159.62L132.93,211.08L133.15,212.69L140.94,272.37L141.12,273.99L144.28,298.09L145.02,299.54L156.99,322.58L158.3,323.55L184.67,342.56L186.1,343.34L211.85,357.17L213.47,357.05L239.4,355.04L240.8,354.22L285.66,327.84L286.92,326.81L326.7,293.26L327.87,292.13L356.12,265.2L357.4,264.2L387.73,239.78L388.49,238.35L419.08,179.07L419.79,177.61L426.46,162.84L426.78,161.24L437.75,102.07L438,100.46L442.25,76.45L442.65,74.87L444.05,70.25L445.13,69.03L446.21,67.82" style="vector-effect: none; fill: none; stroke: rgb(255, 99, 71); stroke-opacity: 1; stroke-width: 1px; opacity: 1;"/></g><g class="points"/><g class="text"/></g><g class="trace scatter trace04648a" style="stroke-miterlimit: 2; opacity: 0.3;"><g class="fills"/><g class="errorbars"/><g class="lines"><path class="js-line" d="M0.88,26.97L20.4,55.46L21.16,56.92L27.75,67.97L29.35,68.33L58.26,74.87L59.51,75.85L89.69,110.64L90.52,112.06L120.64,165.01L121.42,166.46L132.61,188.39L132.91,190L140.68,235.42L140.84,237.06L144.69,273.06L145.07,274.66L157.09,322.35L158.32,323.45L181.92,343.85L183.49,344.34L221.35,355.55L222.97,355.83L229.47,356.92L231.01,356.35L267.77,342.05L269.11,341.09L306.08,313.59L307.28,312.47L344.23,277.27L345.38,276.09L366.53,255.37L367.82,254.35L398.27,229.4L398.89,227.88L422.43,171.7L423.1,170.19L431.2,150.42L431.58,148.82L441.45,103.85L441.53,102.21L443.27,72.74L444.43,71.57L446.56,69.92L445.17,69.04" style="vector-effect: none; fill: none; stroke: rgb(255, 99, 71); stroke-opacity: 1; stroke-width: 1px; opacity: 1;"/></g><g class="points"/><g class="text"/></g><g class="trace scatter tracea20640" style="stroke-miterlimit: 2; opacity: 0.3;"><g class="fills"/><g class="errorbars"/><g class="lines"><path class="js-line" d="M11.95,27.48L17.27,35.4L18.62,36.26L63.31,64.55L63.93,66.03L78.88,99.78L79.74,101.13L106.96,142.84L107.87,144.16L121.77,165.66L122.21,167.21L135.97,218.38L136.23,219.97L145.99,283.49L146.2,285.08L149.23,302.39L149.97,303.82L159.2,320.6L160.47,321.59L186.24,340.68L187.68,341.38L212.34,353.01L213.94,352.96L228.25,351.8L229.76,351.23L268.71,336.23L270.07,335.37L310.55,309.28L311.75,308.21L355.64,268.12L356.8,267.01L404.3,221.37L405.26,220.13L422.73,170.08L423.19,168.54L435.26,125.21L435.64,123.65L442.89,90.76L442.99,89.15L444.33,68.31" style="vector-effect: none; fill: none; stroke: rgb(255, 99, 71); stroke-opacity: 1; stroke-width: 1px; opacity: 1;"/></g><g class="points"/><g class="text"/></g><g class="trace scatter tracec52c59" style="stroke-miterlimit: 2; opacity: 0.3;"><g class="fills"/><g class="errorbars"/><g class="lines"><path class="js-line" d="M3.57,24.6L30.61,45.05L32.06,45.77L49.26,54.55L49.89,56.04L62.32,84.09L63.25,85.42L94.01,131L94.87,132.37L117.46,169.74L118.28,171.14L130.82,193.68L131.18,195.26L142.78,248.99L142.97,250.59L150.88,311.36L152.11,312.42L186.74,341.49L188.17,342.24L216.84,357.14L218.39,356.67L250.75,346.47L252.14,345.65L292.38,321.67L293.51,320.51L328.04,286.46L329.29,285.43L391.58,233.95L392.41,232.56L417.28,189.07L417.91,187.58L432.54,151.68L432.76,150.07L443.85,71.59" style="vector-effect: none; fill: none; stroke: rgb(255, 99, 71); stroke-opacity: 1; stroke-width: 1px; opacity: 1;"/></g><g class="points"/><g class="text"/></g><g class="trace scatter trace55afb7" style="stroke-miterlimit: 2; opacity: 0.3;"><g class="fills"/><g class="errorbars"/><g class="lines"><path class="js-line" d="M6.44,24.88L25.97,39.7L27.46,40.4L50.86,51.86L51.38,53.41L59.71,76.45L60.65,77.8L92.8,123.28L93.82,124.57L117.69,155.73L118.38,157.22L133.49,191.65L133.73,193.27L140.24,241.98L140.37,243.61L146.44,312.17L147.64,313.21L185.05,339.75L186.43,340.63L205.81,352.62L207.43,352.34L223.24,349.06L224.1,347.66L232.61,333.89L234.15,333.5L266.61,329.55L268.11,328.9L304.07,313.04L305.25,311.9L364.69,255.51L365.9,254.4L394.74,227.7L395.36,226.18L415.23,179.44L415.95,177.97L430.71,146.93L431.09,145.34L441.6,99.03L441.79,97.4L444.58,72.98L446.12,72.43L450.32,70.22L449.2,69.23" style="vector-effect: none; fill: none; stroke: rgb(255, 99, 71); stroke-opacity: 1; stroke-width: 1px; opacity: 1;"/></g><g class="points"/><g class="text"/></g><g class="trace scatter tracee837fb" style="stroke-miterlimit: 2; opacity: 0.3;"><g class="fills"/><g class="errorbars"/><g class="lines"><path class="js-line" d="M5.75,25.6L21.78,39.09L23.11,39.99L47.01,56.4L47.6,57.91L56.08,78.78L57.14,80L85.16,113.33L86.06,114.67L132.37,184.65L133.13,186.06L143.27,233.36L143.41,234.97L150.55,308.86L151.46,310.1L177.69,333.96L179.08,334.78L208.44,351.55L210.03,351.83L229.09,355.05L230.63,354.57L268.8,341.86L270.08,340.89L308.17,311.04L309.35,309.95L357.44,264.49L358.6,263.37L395.36,227.1L396.35,225.87L412.27,180.16L412.88,178.66L428.1,139.59L428.54,138.04L442.86,85.08L443.23,83.51L446.49,69.36" style="vector-effect: none; fill: none; stroke: rgb(255, 99, 71); stroke-opacity: 1; stroke-width: 1px; opacity: 1;"/></g><g class="points"/><g class="text"/></g><g class="trace scatter trace5e6356" style="stroke-miterlimit: 2; opacity: 0.3;"><g class="fills"/><g class="errorbars"/><g class="lines"><path class="js-line" d="M1.86,27.58L17.32,52.78L18.01,54.27L25.64,70.67L27.08,71.13L57.92,75.1L59.06,76.29L88.12,107.56L89.02,108.94L124.51,164.3L125.38,165.7L132,176.99L132.3,178.6L140.4,223.9L140.51,225.54L144.03,268.12L144.32,269.74L152.12,313.38L153.31,314.52L170.3,329.99L171.67,330.91L207.22,354.07L208.78,353.56L232.05,345.66L233.16,344.45L242.48,335.21L243.75,334.16L270.61,312.54L272.06,311.75L322.86,284.72L324.33,283.99L346.16,272.6L347.42,271.54L377.27,245.82L378.19,244.45L403.48,206.01L404.24,204.55L422.7,167.87L423.25,166.32L438.97,121.33L439.36,119.73L447.14,86.13L447.2,84.49L448.44,63.74L447.13,63.07" style="vector-effect: none; fill: none; stroke: rgb(255, 99, 71); stroke-opacity: 1; stroke-width: 1px; opacity: 1;"/></g><g class="points"/><g class="text"/></g><g class="trace scatter tracef93c49" style="stroke-miterlimit: 2; opacity: 0.3;"><g class="fills"/><g class="errorbars"/><g class="lines"><path class="js-line" d="M11.73,33.16L56.52,66.22L57.22,67.66L74.44,101.71L75.41,102.97L114.71,155.1L115.65,156.39L117.09,159.2L117.63,160.69L131.25,199.75L131.57,201.31L142.15,256.01L142.36,257.59L147.37,292.24L147.75,293.79L152.92,313.7L154.19,314.66L193.12,345.01L194.34,346.02L196.9,347.85L198.45,348.21L226.3,354.44L227.69,353.65L267.39,330.11L268.69,329.2L309.51,301.44L310.85,300.58L332.07,286.52L333.26,285.47L367.58,254.6L368.66,253.43L394.34,225.2L395.02,223.76L423.11,166.59L423.84,165.18L432.05,147.96L432.54,146.45L447.02,100.97L446.99,99.38L446.73,69.22L447.44,67.8" style="vector-effect: none; fill: none; stroke: rgb(255, 99, 71); stroke-opacity: 1; stroke-width: 1px; opacity: 1;"/></g><g class="points"/><g class="text"/></g><g class="trace scatter traceecdaa7" style="stroke-miterlimit: 2; opacity: 0.3;"><g class="fills"/><g class="errorbars"/><g class="lines"><path class="js-line" d="M9.25,44.65L21.64,61.25L23.21,61.57L55.92,68.78L57.03,69.93L87.79,102.56L88.67,103.9L132.92,172.64L133.78,174L141.26,186.27L141.43,187.87L146.2,238.93L146.27,240.53L148.76,280.49L149.04,282.07L154.91,315.22L156.13,316.25L183.48,338.45L184.86,339.26L212.42,355.64L213.99,355.44L226.4,352.53L227.84,351.83L257.77,336.5L259.09,335.59L302.92,305.99L304.28,305.13L328.34,289.27L329.55,288.22L363.01,258.32L364.14,257.18L386.55,234.3L387.22,232.85L408.21,189.6L409.02,188.22L426.26,157.5L426.8,155.99L442.17,112.13L442.49,110.56L448.99,77.56L448.97,75.96L448.64,68.01L447.86,66.61L447.08,65.21" style="vector-effect: none; fill: none; stroke: rgb(255, 99, 71); stroke-opacity: 1; stroke-width: 1px; opacity: 1;"/></g><g class="points"/><g class="text"/></g><g class="trace scatter trace3f87e0" style="stroke-miterlimit: 2; opacity: 0.3;"><g class="fills"/><g class="errorbars"/><g class="lines"><path class="js-line" d="M6.01,26.61L20.44,41.95L21.92,42.62L46.98,54.13L47.59,55.63L55.29,73.47L56.31,74.73L85.25,111.86L86.12,113.23L113.98,155.16L114.91,156.49L127.47,175.38L128.11,176.88L143.75,214.31L143.84,215.93L146.11,264.58L146.08,266.2L145.71,296.95L146.56,298.34L160.05,320.55L161.4,321.42L196.2,342.31L197.56,343.2L211.36,351.5L212.97,351.74L230.63,354.31L232.12,353.66L277.9,332.9L279.19,331.91L309.82,307.86L310.95,306.69L349.84,267.5L351.01,266.38L377.27,242.18L378.53,241.15L406.22,218.57L406.83,217.09L441.7,105.48L442.17,103.93L446.2,88.26L446.27,86.64L447.1,67.17" style="vector-effect: none; fill: none; stroke: rgb(255, 99, 71); stroke-opacity: 1; stroke-width: 1px; opacity: 1;"/></g><g class="points"/><g class="text"/></g><g class="trace scatter tracec82860" style="stroke-miterlimit: 2; opacity: 0.3;"><g class="fills"/><g class="errorbars"/><g class="lines"><path class="js-line" d="M14.59,38.48L26.11,61.96L27.3,62.66L45.28,62.41L46.68,63.18L80.34,86.23L81.26,87.58L113.48,136.79L114.34,138.18L127.71,160.59L128.2,162.15L140.42,202.8L140.61,204.42L145.87,254.79L145.93,256.42L148.03,292.28L148.3,293.89L151.57,313.19L152.77,314.3L179.59,338.18L180.94,339.1L208.22,356.67L209.85,356.53L243.95,353.45L245.27,352.49L312.35,303.02L313.52,301.89L355.91,261.1L357.12,260.01L378.48,239.83L379.57,238.61L403.25,211.61L403.97,210.14L423.92,168.99L424.45,167.44L438.5,127.37L439.2,125.89L452.82,96.34L452.4,94.76L445.53,69.55L444.57,68.23L440.71,62.95" style="vector-effect: none; fill: none; stroke: rgb(255, 99, 71); stroke-opacity: 1; stroke-width: 1px; opacity: 1;"/></g><g class="points"/><g class="text"/></g><g class="trace scatter tracea929ea" style="stroke-miterlimit: 2; opacity: 0.3;"><g class="fills"/><g class="errorbars"/><g class="lines"><path class="js-line" d="M3.69,26.38L6.56,31.35L7.41,32.77L18.75,52.88L19.46,54.38L27.22,70.8L28.6,71.13L51.42,69.8L52.6,70.95L87.68,105.87L88.55,107.27L116.9,151.87L117.82,153.24L132.05,175.4L132.37,177.02L149.08,256.19L149.44,257.81L152.09,272.37L152.03,274.02L150.77,307.02L151.5,308.48L159.22,321.02L160.57,321.96L190.84,341.99L192.31,342.72L217.42,355.24L218.83,354.38L248.07,335.75L249.43,334.81L275.52,317.48L277.05,316.87L312.09,302.38L313.41,301.38L347.02,274.77L348.13,273.54L375.24,242.45L376.16,241.07L402.25,202.92L403.28,201.63L426.36,171.58L426.86,170L449.69,99.28L450.22,97.72L453.3,86.75L452.86,85.16L447.15,64.46" style="vector-effect: none; fill: none; stroke: rgb(255, 99, 71); stroke-opacity: 1; stroke-width: 1px; opacity: 1;"/></g><g class="points"/><g class="text"/></g><g class="trace scatter traceb32d44" style="stroke-miterlimit: 2; opacity: 0.3;"><g class="fills"/><g class="errorbars"/><g class="lines"><path class="js-line" d="M7.74,25.31L7.48,25.49L8.5,26.76L16.68,36.86L18.12,37.62L45.49,51.99L46.03,53.47L52.33,75.26L53.44,76.45L82.99,108.93L83.91,110.27L113.68,154.95L114.55,156.32L125.6,174.31L126.09,175.86L140.91,225.72L141.11,227.33L147.83,287.15L147.94,288.78L149.63,308.14L150.71,309.35L167.26,327.23L168.54,328.24L200.66,353.09L202.25,353.41L227.69,357.99L229.21,357.41L271.58,340.81L272.78,339.71L315.69,299.86L316.82,298.69L341.91,273.2L343.18,272.17L374.53,246.31L375.6,245.08L401.72,213.98L402.52,212.56L421.83,176.83L422.31,175.28L435.25,131.62L435.58,130.02L444.83,88.77L445.29,87.21L450.04,71.67L451.16,70.48" style="vector-effect: none; fill: none; stroke: rgb(255, 99, 71); stroke-opacity: 1; stroke-width: 1px; opacity: 1;"/></g><g class="points"/><g class="text"/></g><g class="trace scatter trace88bef4" style="stroke-miterlimit: 2; opacity: 0.3;"><g class="fills"/><g class="errorbars"/><g class="lines"><path class="js-line" d="M8.88,45.19L20.3,60.38L21.85,60.74L52.64,68.35L53.74,69.49L83.17,100.72L84.08,102.03L113.44,145.54L114.29,146.89L126.7,167.22L127.22,168.73L139.74,206.44L140.04,208.01L150.14,264.34L150.21,265.93L152.54,302.24L153.52,303.5L174.45,329.42L175.79,330.28L209.6,351.06L211.12,351.51L224.87,355.29L226.4,354.87L263.01,344.35L264.3,343.42L301.42,316.09L302.51,314.93L332.4,284.12L333.61,283.08L371.62,249.23L372.76,248.13L391.79,228.99L392.64,227.64L415.03,191.03L415.68,189.58L431.36,153.08L431.73,151.53L444.77,94.15L445.02,92.57L448.92,69.84L448.06,68.86" style="vector-effect: none; fill: none; stroke: rgb(255, 99, 71); stroke-opacity: 1; stroke-width: 1px; opacity: 1;"/></g><g class="points"/><g class="text"/></g><g class="trace scatter tracefac825" style="stroke-miterlimit: 2; opacity: 0.3;"><g class="fills"/><g class="errorbars"/><g class="lines"><path class="js-line" d="M13.4,45.08L23.19,57.38L24.75,57.67L55.8,64.2L56.96,65.3L86.69,94.14L87.53,95.5L130.35,164.71L130.76,166.25L141.15,206.4L141.34,207.98L147.63,263.47L147.7,265.07L149.76,298.45L150.35,299.93L158.1,319.16L159.4,320.09L190.83,341.95L192.2,342.76L214.15,355.82L215.68,355.7L247,349.55L248.27,348.59L311.25,299.57L312.5,298.58L358.04,261L359.22,259.93L388.44,232.82L389.39,231.53L414.74,196.72L415.34,195.25L431.46,153.63L431.74,152.06L440.63,98.55L440.8,96.96L443.94,73.37L444.95,72.13L447.19,68.51" style="vector-effect: none; fill: none; stroke: rgb(255, 99, 71); stroke-opacity: 1; stroke-width: 1px; opacity: 1;"/></g><g class="points"/><g class="text"/></g><g class="trace scatter trace3e4f70" style="stroke-miterlimit: 2; opacity: 0.3;"><g class="fills"/><g class="errorbars"/><g class="lines"><path class="js-line" d="M3.32,24.6L21.38,41.58L22.77,42.48L46.44,57.7L47.25,59.08L53.84,74.17L54.99,75.36L84.67,106.5L85.67,107.82L114.12,146.48L115.04,147.86L131.05,172.86L131.45,174.47L143.2,224.38L143.33,226.03L146.27,268.96L146.31,270.61L146.94,302.06L147.71,303.44L166.06,324.68L167.45,325.58L202.56,347.44L204.05,348.16L219.05,354.88L220.71,354.76L240.46,353.09L241.94,352.36L283.2,331.35L284.48,330.3L320,300.58L321.11,299.35L348.28,270.4L349.54,269.32L379.17,242.92L380.26,241.67L404.74,212.59L405.41,211.07L423.62,168.46L424.18,166.9L440.7,123.61L441.39,122.1L455.12,91.97L454.73,90.37L448.6,66.32L447.55,65.04L443.37,59.9" style="vector-effect: none; fill: none; stroke: rgb(255, 99, 71); stroke-opacity: 1; stroke-width: 1px; opacity: 1;"/></g><g class="points"/><g class="text"/></g><g class="trace scatter trace29eb1d" style="stroke-miterlimit: 2; opacity: 1;"><g class="fills"/><g class="errorbars"/><g class="lines"><path class="js-line" d="M6.96,26.89L13.36,34.71L14.51,35.92L36.77,56.38L38.23,57.25L46.65,63.38L47.65,64.33L50.43,66.97L51.05,68.03L52.89,69.71L53.9,69.9L56.31,71.73L57.21,72.92L58.27,75.12L59.38,76.23L63.28,79.78L64.33,81.05L73.27,93.5L74.28,94.79L90.23,115.63L91.16,116.95L102.61,134.84L103.49,136.19L117.85,159.39L118.38,160.83L121.22,166.51L122.06,167.95L130.15,184.15L130.79,185.69L134.11,194.92L134.45,196.48L136.96,208.95L137.29,210.51L142.88,234.07L143.06,235.69L144.57,248.82L144.75,250.46L146.37,271.83L146.5,273.47L149.62,297.48L149.98,298.93L151.26,306.77L152.05,308.22L157.77,318.07L158.87,319.33L164.48,325.12L165.73,326.17L198.43,347.61L199.81,348.21L214.62,354.44L216.19,354.68L220.9,354.5L222.26,354.46L226.94,353.9L228.56,353.84L233.28,353.05L234.83,352.32L255.08,342.36L256.55,341.51L263.88,338.06L265.31,337.39L276.11,330.32L277.47,329.43L293.21,318.3L294.48,317.24L345.8,275.73L346.95,274.61L366.12,256.77L367.3,255.67L388.07,235.45L389.11,234.27L399.07,220.02L399.91,218.61L403.55,211.71L404.22,210.39L420.65,176.92L421.19,175.39L431.58,145.83L432.07,144.27L436.46,127.09L436.8,125.53L442.21,98.89L442.41,97.28L443.11,90.91L443.4,89.32L445.37,71.96L445.85,70.56L446.35,67.8" style="vector-effect: none; fill: none; stroke: rgb(0, 0, 0); stroke-opacity: 1; stroke-width: 2.5px; opacity: 1;"/></g><g class="points"/><g class="text"/></g></g></g></g><g class="zerolinelayer-above"/><path class="xlines-above crisp" d="M64,440.5H522M64,59.5H522" style="fill: none; stroke-width: 1px; stroke: rgb(0, 0, 0); stroke-opacity: 1;"/><path class="ylines-above crisp" d="M64.5,60V440M521.5,60V440" style="fill: none; stroke-width: 1px; stroke: rgb(0, 0, 0); stroke-opacity: 1;"/><g class="overlines-above"/><g class="xaxislayer-above"><path class="xtick ticks crisp" d="M0,441v4" transform="translate(150.76999999999998,0)" style="stroke: rgb(0, 0, 0); stroke-opacity: 1; stroke-width: 1px;"/><path class="xtick ticks crisp" d="M0,441v4" transform="translate(247.13,0)" style="stroke: rgb(0, 0, 0); stroke-opacity: 1; stroke-width: 1px;"/><path class="xtick ticks crisp" d="M0,441v4" transform="translate(343.49,0)" style="stroke: rgb(0, 0, 0); stroke-opacity: 1; stroke-width: 1px;"/><path class="xtick ticks crisp" d="M0,441v4" transform="translate(439.85,0)" style="stroke: rgb(0, 0, 0); stroke-opacity: 1; stroke-width: 1px;"/><g class="xtick"><text text-anchor="middle" x="0" y="459.4" transform="translate(150.76999999999998,0)" style="font-family: 'Times New Roman'; font-size: 12px; fill: rgb(0, 0, 0); fill-opacity: 1; white-space: pre;">−2</text></g><g class="xtick"><text text-anchor="middle" x="0" y="459.4" style="font-family: 'Times New Roman'; font-size: 12px; fill: rgb(0, 0, 0); fill-opacity: 1; white-space: pre;" transform="translate(247.13,0)">−1</text></g><g class="xtick"><text text-anchor="middle" x="0" y="459.4" style="font-family: 'Times New Roman'; font-size: 12px; fill: rgb(0, 0, 0); fill-opacity: 1; white-space: pre;" transform="translate(343.49,0)">0</text></g><g class="xtick"><text text-anchor="middle" x="0" y="459.4" style="font-family: 'Times New Roman'; font-size: 12px; fill: rgb(0, 0, 0); fill-opacity: 1; white-space: pre;" transform="translate(439.85,0)">1</text></g></g><g class="yaxislayer-above"><path class="ytick ticks crisp" d="M64,0h-4" transform="translate(0,437.52)" style="stroke: rgb(0, 0, 0); stroke-opacity: 1; stroke-width: 1px;"/><path class="ytick ticks crisp" d="M64,0h-4" transform="translate(0,389.34)" style="stroke: rgb(0, 0, 0); stroke-opacity: 1; stroke-width: 1px;"/><path class="ytick ticks crisp" d="M64,0h-4" transform="translate(0,341.16)" style="stroke: rgb(0, 0, 0); stroke-opacity: 1; stroke-width: 1px;"/><path class="ytick ticks crisp" d="M64,0h-4" transform="translate(0,292.99)" style="stroke: rgb(0, 0, 0); stroke-opacity: 1; stroke-width: 1px;"/><path class="ytick ticks crisp" d="M64,0h-4" transform="translate(0,244.81)" style="stroke: rgb(0, 0, 0); stroke-opacity: 1; stroke-width: 1px;"/><path class="ytick ticks crisp" d="M64,0h-4" transform="translate(0,196.63)" style="stroke: rgb(0, 0, 0); stroke-opacity: 1; stroke-width: 1px;"/><path class="ytick ticks crisp" d="M64,0h-4" transform="translate(0,148.45)" style="stroke: rgb(0, 0, 0); stroke-opacity: 1; stroke-width: 1px;"/><path class="ytick ticks crisp" d="M64,0h-4" transform="translate(0,100.27000000000001)" style="stroke: rgb(0, 0, 0); stroke-opacity: 1; stroke-width: 1px;"/><g class="ytick"><text text-anchor="end" x="57.6" y="4.199999999999999" transform="translate(0,437.52)" style="font-family: 'Times New Roman'; font-size: 12px; fill: rgb(0, 0, 0); fill-opacity: 1; white-space: pre;">−1.5</text></g><g class="ytick"><text text-anchor="end" x="57.6" y="4.199999999999999" style="font-family: 'Times New Roman'; font-size: 12px; fill: rgb(0, 0, 0); fill-opacity: 1; white-space: pre;" transform="translate(0,389.34)">−1</text></g><g class="ytick"><text text-anchor="end" x="57.6" y="4.199999999999999" style="font-family: 'Times New Roman'; font-size: 12px; fill: rgb(0, 0, 0); fill-opacity: 1; white-space: pre;" transform="translate(0,341.16)">−0.5</text></g><g class="ytick"><text text-anchor="end" x="57.6" y="4.199999999999999" style="font-family: 'Times New Roman'; font-size: 12px; fill: rgb(0, 0, 0); fill-opacity: 1; white-space: pre;" transform="translate(0,292.99)">0</text></g><g class="ytick"><text text-anchor="end" x="57.6" y="4.199999999999999" style="font-family: 'Times New Roman'; font-size: 12px; fill: rgb(0, 0, 0); fill-opacity: 1; white-space: pre;" transform="translate(0,244.81)">0.5</text></g><g class="ytick"><text text-anchor="end" x="57.6" y="4.199999999999999" style="font-family: 'Times New Roman'; font-size: 12px; fill: rgb(0, 0, 0); fill-opacity: 1; white-space: pre;" transform="translate(0,196.63)">1</text></g><g class="ytick"><text text-anchor="end" x="57.6" y="4.199999999999999" style="font-family: 'Times New Roman'; font-size: 12px; fill: rgb(0, 0, 0); fill-opacity: 1; white-space: pre;" transform="translate(0,148.45)">1.5</text></g><g class="ytick"><text text-anchor="end" x="57.6" y="4.199999999999999" style="font-family: 'Times New Roman'; font-size: 12px; fill: rgb(0, 0, 0); fill-opacity: 1; white-space: pre;" transform="translate(0,100.27000000000001)">2</text></g></g><g class="overaxes-above"/></g></g><g class="polarlayer"/><g class="smithlayer"/><g class="ternarylayer"/><g class="geolayer"/><g class="funnelarealayer"/><g class="pielayer"/><g class="iciclelayer"/><g class="treemaplayer"/><g class="sunburstlayer"/><g class="glimages"/><defs id="topdefs-b45b2e"><g class="clips"/><clipPath id="legendb45b2e"><rect width="158" height="58" x="0" y="0"/></clipPath></defs><g class="layer-above"><g class="imagelayer"/><g class="shapelayer"/></g><g class="infolayer"><g class="legend" pointer-events="all" transform="translate(530.12,60)"><rect class="bg" shape-rendering="crispEdges" style="stroke: rgb(68, 68, 68); stroke-opacity: 1; fill: rgb(255, 255, 255); fill-opacity: 1; stroke-width: 0px;" width="158" height="58" x="0" y="0"/><g class="scrollbox" transform="" clip-path="url(#legendb45b2e)"><g class="groups" transform=""><g class="traces" transform="translate(0,14.5)" style="opacity: 1;"><text class="legendtext" text-anchor="start" x="40" y="4.680000000000001" style="font-family: 'Times New Roman'; font-size: 12px; fill: rgb(42, 63, 95); fill-opacity: 1; white-space: pre;">Runs</text><g class="layers" style="opacity: 0.3;"><g class="legendfill"/><g class="legendlines"><path class="js-line" d="M5,0h30" style="fill: none; stroke: rgb(255, 99, 71); stroke-opacity: 1; stroke-width: 1px;"/></g><g class="legendsymbols"><g class="legendpoints"/></g></g><rect class="legendtoggle" x="0" y="-9.5" width="152.28515625" height="19" style="fill: rgb(0, 0, 0); fill-opacity: 0;"/></g></g><g class="groups" transform="translate(0,10)"><g class="traces" transform="translate(0,33.5)" style="opacity: 1;"><text class="legendtext" text-anchor="start" x="40" y="4.680000000000001" style="font-family: 'Times New Roman'; font-size: 12px; fill: rgb(42, 63, 95); fill-opacity: 1; white-space: pre;">Mediana das trajetórias</text><g class="layers" style="opacity: 1;"><g class="legendfill"/><g class="legendlines"><path class="js-line" d="M5,0h30" style="fill: none; stroke: rgb(0, 0, 0); stroke-opacity: 1; stroke-width: 2.5px;"/></g><g class="legendsymbols"><g class="legendpoints"/></g></g><rect class="legendtoggle" x="0" y="-9.5" width="152.28515625" height="19" style="fill: rgb(0, 0, 0); fill-opacity: 0;"/></g></g></g><rect class="scrollbar" rx="20" ry="3" width="0" height="0" style="fill: rgb(128, 139, 164); fill-opacity: 1;" x="0" y="0"/></g><g class="g-gtitle"><text class="gtitle" x="350" y="30" text-anchor="middle" dy="0em" style="opacity: 1; font-family: 'Times New Roman'; font-size: 15px; fill: rgb(0, 0, 0); fill-opacity: 1; white-space: pre;">Trajetórias — Uma Câmera (Clip pelo Plano) + Mediana</text></g><g class="g-xtitle"><text class="xtitle" x="293" y="485.300390625" text-anchor="middle" style="opacity: 1; font-family: 'Times New Roman'; font-size: 12px; fill: rgb(0, 0, 0); fill-opacity: 1; white-space: pre;">X (m)</text></g><g class="g-ytitle"><text class="ytitle" transform="rotate(-90,17.118359374999997,250)" x="17.118359374999997" y="250" text-anchor="middle" style="opacity: 1; font-family: 'Times New Roman'; font-size: 12px; fill: rgb(0, 0, 0); fill-opacity: 1; white-space: pre;">Y (m)</text></g></g></svg>